<svg xmlns="http://www.w3.org/2000/svg" width="1280" height="870" viewBox="0 0 1280 870">
<defs>
  <style>
    text{font-family:Arial,"Microsoft YaHei",sans-serif;fill:#172033}
    .layer{font-size:20px;font-weight:700}.group{font-size:15px;font-weight:700}.name{font-size:16px;font-weight:700}.sub{font-size:12px;fill:#667085}.route{font-size:12px;font-weight:700;fill:#6d5ce8}.card{fill:#fff;stroke:#d5dce7;stroke-width:1.2}
  </style>
</defs>
<rect width="1280" height="870" fill="#fff"/>
<rect x="35" y="25" width="1210" height="120" rx="18" fill="#eef6ff" stroke="#cce2ff"/>
<rect x="35" y="25" width="135" height="120" rx="18" fill="#dceeff"/>
<text x="102" y="92" text-anchor="middle" class="layer">应用层</text>
<g>
  <rect x="220" y="52" width="260" height="66" rx="12" class="card"/>
  <circle cx="255" cy="85" r="14" fill="#e8f2ff" stroke="#2f80ed" stroke-width="2"/>
  <circle cx="249" cy="83" r="2.4" fill="#2f80ed"/><circle cx="255" cy="77" r="2.4" fill="#2f80ed"/><circle cx="261" cy="83" r="2.4" fill="#2f80ed"/>
  <text x="290" y="91" class="name">Agent / Workflow</text>
  <rect x="510" y="52" width="260" height="66" rx="12" class="card"/>
  <rect x="546" y="68" width="25" height="30" rx="4" fill="none" stroke="#2f80ed" stroke-width="2.2"/>
  <path d="M552 76h13M552 84h13M552 92h9" stroke="#2f80ed" stroke-width="2"/>
  <text x="590" y="91" class="name">LLM / Tool / RAG</text>
  <rect x="800" y="52" width="260" height="66" rx="12" class="card"/>
  <path d="M837 68l17 10v20l-17 10-17-10V78zM820 78l17 10 17-10M837 88v20" fill="none" stroke="#2f80ed" stroke-width="2.2"/>
  <text x="880" y="91" class="name">Dify / App Framework</text>
</g>
<rect x="35" y="175" width="1210" height="245" rx="18" fill="#f4f1ff" stroke="#dad2ff"/>
<rect x="35" y="175" width="135" height="245" rx="18" fill="#e8e2ff"/>
<text x="102" y="305" text-anchor="middle" class="layer">采集层</text>
<rect x="190" y="205" width="315" height="180" rx="14" fill="#faf9ff" stroke="#d9d2ff"/>
<text x="210" y="232" class="group">① 数据捕获模块</text>
<rect x="220" y="250" width="255" height="50" rx="10" class="card"/>
<text x="348" y="281" text-anchor="middle" class="name">Langfuse SDK / Integrations</text>
<text x="210" y="320" class="route">或</text>
<rect x="220" y="330" width="255" height="50" rx="10" class="card"/>
<text x="348" y="361" text-anchor="middle" class="name">OTel Instrumentation</text>
<rect x="530" y="205" width="315" height="180" rx="14" fill="#faf9ff" stroke="#d9d2ff"/>
<text x="550" y="232" class="group">② 数据标准化模块</text>
<rect x="560" y="250" width="255" height="50" rx="10" class="card"/>
<text x="688" y="281" text-anchor="middle" class="name">Langfuse Event</text>
<text x="550" y="320" class="route">或</text>
<rect x="560" y="330" width="255" height="50" rx="10" class="card"/>
<text x="688" y="361" text-anchor="middle" class="name">OpenTelemetry SDK</text>
<rect x="870" y="205" width="335" height="180" rx="14" fill="#faf9ff" stroke="#d9d2ff"/>
<text x="890" y="232" class="group">③ 数据上报模块</text>
<rect x="900" y="250" width="275" height="50" rx="10" class="card"/>
<text x="1038" y="281" text-anchor="middle" class="name">Ingestion API Client</text>
<text x="890" y="320" class="route">或</text>
<rect x="900" y="330" width="275" height="50" rx="10" class="card"/>
<text x="1038" y="351" text-anchor="middle" class="name">OTLP Exporter</text>
<text x="1038" y="368" text-anchor="middle" class="sub">HTTP / gRPC</text>
<rect x="35" y="450" width="1210" height="300" rx="18" fill="#ecfaf4" stroke="#c5ecd9"/>
<rect x="35" y="450" width="135" height="300" rx="18" fill="#dcf5e9"/>
<text x="102" y="607" text-anchor="middle" class="layer">平台层</text>
<rect x="205" y="472" width="1000" height="62" rx="14" fill="#f9fffc" stroke="#cdebdc"/>
<text x="225" y="498" class="group">接收模块</text>
<rect x="390" y="481" width="260" height="44" rx="10" class="card"/>
<text x="520" y="510" text-anchor="middle" class="name">Ingestion API</text>
<rect x="690" y="481" width="260" height="44" rx="10" class="card"/>
<text x="820" y="510" text-anchor="middle" class="name">OTLP Endpoint</text>
<rect x="205" y="547" width="1000" height="70" rx="14" fill="#f9fffc" stroke="#cdebdc"/>
<text x="225" y="575" class="group">服务模块</text>
<rect x="390" y="558" width="260" height="48" rx="10" class="card"/>
<text x="520" y="588" text-anchor="middle" class="name">Web / API</text>
<rect x="690" y="558" width="260" height="48" rx="10" class="card"/>
<text x="820" y="588" text-anchor="middle" class="name">Worker</text>
<rect x="205" y="630" width="1000" height="100" rx="14" fill="#f9fffc" stroke="#cdebdc"/>
<text x="225" y="659" class="group">功能模块</text>
<g>
  <rect x="315" y="673" width="155" height="42" rx="10" class="card"/><text x="393" y="700" text-anchor="middle" class="name">Trace</text>
  <rect x="485" y="673" width="165" height="42" rx="10" class="card"/><text x="568" y="700" text-anchor="middle" class="name">Score / Eval</text>
  <rect x="665" y="673" width="190" height="42" rx="10" class="card"/><text x="760" y="700" text-anchor="middle" class="name">Dataset / Experiment</text>
  <rect x="870" y="673" width="135" height="42" rx="10" class="card"/><text x="938" y="700" text-anchor="middle" class="name">Prompt</text>
  <rect x="1020" y="673" width="160" height="42" rx="10" class="card"/><text x="1100" y="700" text-anchor="middle" class="name">Dashboard</text>
</g>
<rect x="35" y="780" width="1210" height="75" rx="18" fill="#fff6e8" stroke="#f2d9ac"/>
<rect x="35" y="780" width="135" height="75" rx="18" fill="#ffefd3"/>
<text x="102" y="824" text-anchor="middle" class="layer">存储层</text>
<g>
  <rect x="205" y="793" width="220" height="50" rx="12" class="card"/><text x="315" y="823" text-anchor="middle" class="name">PostgreSQL</text>
  <rect x="445" y="793" width="220" height="50" rx="12" class="card"/><text x="555" y="823" text-anchor="middle" class="name">ClickHouse</text>
  <rect x="685" y="793" width="220" height="50" rx="12" class="card"/><text x="795" y="823" text-anchor="middle" class="name">Redis / Valkey</text>
  <rect x="925" y="793" width="260" height="50" rx="12" class="card"/><text x="1055" y="823" text-anchor="middle" class="name">Object Storage</text>
</g>
</svg>