<svg xmlns="http://www.w3.org/2000/svg" width="1280" height="800" viewBox="0 0 1280 800">
  <defs>
    <style>
      text{font-family:Arial,"Microsoft YaHei",sans-serif;fill:#172033}
      .layer{font-size:20px;font-weight:700}
      .group{font-size:16px;font-weight:700}
      .name{font-size:15px;font-weight:700}
      .card{fill:#fff;stroke:#d7dde7;stroke-width:1.2}
      .webbox{fill:#fbfdfc;stroke:#bfe4d0;stroke-width:1.4}
      .workerbox{fill:#fffaf2;stroke:#f0cf8d;stroke-width:1.4}
    </style>
  </defs>
  <rect width="1280" height="800" fill="#fff"/>
  <rect x="35" y="25" width="1210" height="100" rx="18" fill="#f2efff" stroke="#d8d0ff"/>
  <rect x="35" y="25" width="150" height="100" rx="18" fill="#e7e0ff"/>
  <text x="110" y="83" text-anchor="middle" class="layer">展示层</text>
  <rect x="360" y="45" width="560" height="60" rx="12" class="card"/>
  <text x="640" y="82" text-anchor="middle" class="name">Web 界面</text>
  <rect x="35" y="145" width="1210" height="120" rx="18" fill="#eef7ff" stroke="#cfe4f7"/>
  <rect x="35" y="145" width="150" height="120" rx="18" fill="#dceeff"/>
  <text x="110" y="213" text-anchor="middle" class="layer">接口层</text>
  <rect x="235" y="171" width="260" height="66" rx="12" class="card"/>
  <text x="365" y="210" text-anchor="middle" class="name">开放接口</text>
  <rect x="515" y="171" width="260" height="66" rx="12" class="card"/>
  <text x="645" y="210" text-anchor="middle" class="name">平台接口</text>
  <rect x="795" y="171" width="300" height="66" rx="12" class="card"/>
  <text x="945" y="210" text-anchor="middle" class="name">数据接收</text>
  <rect x="35" y="285" width="1210" height="345" rx="18" fill="#ecfaf4" stroke="#c7ead8"/>
  <rect x="35" y="285" width="150" height="345" rx="18" fill="#dcf5e9"/>
  <text x="110" y="467" text-anchor="middle" class="layer">服务层</text>
  <rect x="205" y="308" width="650" height="295" rx="16" class="webbox"/>
  <text x="230" y="337" class="group">Web 服务</text>
  <rect x="230" y="355" width="190" height="70" rx="11" class="card"/><text x="325" y="397" text-anchor="middle" class="name">调用链 / 会话 / 用户</text>
  <rect x="435" y="355" width="190" height="70" rx="11" class="card"/><text x="530" y="397" text-anchor="middle" class="name">评分与评估</text>
  <rect x="640" y="355" width="190" height="70" rx="11" class="card"/><text x="735" y="397" text-anchor="middle" class="name">数据集与实验</text>
  <rect x="230" y="445" width="290" height="70" rx="11" class="card"/><text x="375" y="487" text-anchor="middle" class="name">提示词</text>
  <rect x="540" y="445" width="290" height="70" rx="11" class="card"/><text x="685" y="487" text-anchor="middle" class="name">数据看板</text>
  <rect x="875" y="308" width="330" height="295" rx="16" class="workerbox"/>
  <text x="900" y="337" class="group">Worker</text>
  <rect x="900" y="365" width="280" height="60" rx="11" class="card"/><text x="1040" y="402" text-anchor="middle" class="name">数据摄取</text>
  <rect x="900" y="445" width="280" height="60" rx="11" class="card"/><text x="1040" y="482" text-anchor="middle" class="name">评估执行</text>
  <rect x="900" y="525" width="280" height="60" rx="11" class="card"/><text x="1040" y="562" text-anchor="middle" class="name">后台任务</text>
  <rect x="35" y="650" width="1210" height="120" rx="18" fill="#fff1f3" stroke="#f2cbd2"/>
  <rect x="35" y="650" width="150" height="120" rx="18" fill="#ffe1e6"/>
  <text x="110" y="701" text-anchor="middle" class="layer">存储与</text>
  <text x="110" y="726" text-anchor="middle" class="layer">基础设施层</text>
  <rect x="205" y="672" width="230" height="76" rx="12" class="card"/><text x="320" y="716" text-anchor="middle" class="name">PostgreSQL</text>
  <rect x="455" y="672" width="230" height="76" rx="12" class="card"/><text x="570" y="716" text-anchor="middle" class="name">ClickHouse</text>
  <rect x="705" y="672" width="230" height="76" rx="12" class="card"/><text x="820" y="716" text-anchor="middle" class="name">Redis / Valkey</text>
  <rect x="955" y="672" width="250" height="76" rx="12" class="card"/><text x="1080" y="716" text-anchor="middle" class="name">Object Storage</text>
</svg>