<svg xmlns="http://www.w3.org/2000/svg" width="1280" height="760" viewBox="0 0 1280 760">
  <defs>
    <style>
      text{font-family:Arial,"Microsoft YaHei",sans-serif;fill:#172033}
      .layer{font-size:20px;font-weight:700}
      .group{font-size:15px;font-weight:700}
      .name{font-size:15px;font-weight:700}
      .sub{font-size:12px;fill:#667085}
      .card{fill:#fff;stroke:#d7dde7;stroke-width:1.2}
      .box{fill:#fbfdfc;stroke:#c9e8d8;stroke-width:1.3}
    </style>
  </defs>
  <rect width="1280" height="760" fill="#fff"/>
  <rect x="35" y="25" width="1210" height="110" rx="18" fill="#eef6ff" stroke="#cfe2ff"/>
  <rect x="35" y="25" width="145" height="110" rx="18" fill="#dceeff"/>
  <text x="107" y="88" text-anchor="middle" class="layer">展示层</text>
  <rect x="300" y="48" width="270" height="64" rx="12" class="card"/>
  <rect x="330" y="65" width="30" height="23" rx="4" fill="none" stroke="#2f80ed" stroke-width="2"/>
  <path d="M336 94h18M345 88v6" stroke="#2f80ed" stroke-width="2"/>
  <text x="390" y="86" class="name">Web UI</text>
  <rect x="640" y="48" width="300" height="64" rx="12" class="card"/>
  <path d="M672 65h28v28h-28zM678 72h16M678 79h12" fill="none" stroke="#2f80ed" stroke-width="2"/>
  <text x="720" y="86" class="name">Playground / 可视化页面</text>
  <rect x="35" y="155" width="1210" height="120" rx="18" fill="#f4f1ff" stroke="#ddd4ff"/>
  <rect x="35" y="155" width="145" height="120" rx="18" fill="#e9e3ff"/>
  <text x="107" y="223" text-anchor="middle" class="layer">接口层</text>
  <rect x="235" y="181" width="250" height="66" rx="12" class="card"/>
  <text x="360" y="208" text-anchor="middle" class="name">REST API</text>
  <text x="360" y="229" text-anchor="middle" class="sub">平台对外接口</text>
  <rect x="515" y="181" width="250" height="66" rx="12" class="card"/>
  <text x="640" y="208" text-anchor="middle" class="name">GraphQL API</text>
  <text x="640" y="229" text-anchor="middle" class="sub">页面查询与交互</text>
  <rect x="795" y="181" width="300" height="66" rx="12" class="card"/>
  <text x="945" y="208" text-anchor="middle" class="name">Trace Ingestion</text>
  <text x="945" y="229" text-anchor="middle" class="sub">OTLP HTTP / gRPC</text>
  <rect x="35" y="295" width="1210" height="315" rx="18" fill="#ecfaf4" stroke="#c7ead8"/>
  <rect x="35" y="295" width="145" height="315" rx="18" fill="#dcf5e9"/>
  <text x="107" y="463" text-anchor="middle" class="layer">服务层</text>
  <rect x="205" y="318" width="1000" height="265" rx="16" class="box"/>
  <text x="230" y="347" class="group">Phoenix Server</text>
  <text x="235" y="382" class="group">核心服务模块</text>
  <rect x="235" y="395" width="175" height="70" rx="11" class="card"/>
  <text x="322" y="423" text-anchor="middle" class="name">Trace / Session</text>
  <text x="322" y="445" text-anchor="middle" class="sub">链路与会话</text>
  <rect x="425" y="395" width="175" height="70" rx="11" class="card"/>
  <text x="512" y="423" text-anchor="middle" class="name">Evaluation</text>
  <text x="512" y="445" text-anchor="middle" class="sub">Annotation / Eval</text>
  <rect x="615" y="395" width="195" height="70" rx="11" class="card"/>
  <text x="712" y="423" text-anchor="middle" class="name">Dataset / Experiment</text>
  <text x="712" y="445" text-anchor="middle" class="sub">数据集与实验</text>
  <rect x="825" y="395" width="165" height="70" rx="11" class="card"/>
  <text x="907" y="423" text-anchor="middle" class="name">Prompt</text>
  <text x="907" y="445" text-anchor="middle" class="sub">Playground</text>
  <rect x="1005" y="395" width="170" height="70" rx="11" class="card"/>
  <text x="1090" y="423" text-anchor="middle" class="name">Dashboard</text>
  <text x="1090" y="445" text-anchor="middle" class="sub">Cost / Model</text>
  <text x="235" y="500" class="group">后台执行模块</text>
  <rect x="235" y="513" width="220" height="48" rx="10" class="card"/>
  <text x="345" y="543" text-anchor="middle" class="name">数据写入</text>
  <rect x="475" y="513" width="220" height="48" rx="10" class="card"/>
  <text x="585" y="543" text-anchor="middle" class="name">实验执行</text>
  <rect x="715" y="513" width="220" height="48" rx="10" class="card"/>
  <text x="825" y="543" text-anchor="middle" class="name">成本计算</text>
  <rect x="955" y="513" width="220" height="48" rx="10" class="card"/>
  <text x="1065" y="543" text-anchor="middle" class="name">后台维护</text>
  <rect x="35" y="630" width="1210" height="100" rx="18" fill="#fff6e8" stroke="#f1d9ae"/>
  <rect x="35" y="630" width="145" height="100" rx="18" fill="#ffefd5"/>
  <text x="107" y="671" text-anchor="middle" class="layer">存储与</text>
  <text x="107" y="696" text-anchor="middle" class="layer">基础设施层</text>
  <rect x="360" y="650" width="250" height="60" rx="12" class="card"/>
  <ellipse cx="400" cy="671" rx="25" ry="8" fill="#fff4e5" stroke="#f59e0b" stroke-width="2"/>
  <rect x="375" y="671" width="50" height="20" fill="#fff9f0" stroke="#f59e0b" stroke-width="2"/>
  <ellipse cx="400" cy="691" rx="25" ry="8" fill="#fff9f0" stroke="#f59e0b" stroke-width="2"/>
  <text x="455" y="687" class="name">SQLite</text>
  <rect x="660" y="650" width="260" height="60" rx="12" class="card"/>
  <ellipse cx="700" cy="671" rx="25" ry="8" fill="#fff4e5" stroke="#f59e0b" stroke-width="2"/>
  <rect x="675" y="671" width="50" height="20" fill="#fff9f0" stroke="#f59e0b" stroke-width="2"/>
  <ellipse cx="700" cy="691" rx="25" ry="8" fill="#fff9f0" stroke="#f59e0b" stroke-width="2"/>
  <text x="755" y="687" class="name">PostgreSQL</text>
</svg>