<svg xmlns="http://www.w3.org/2000/svg" width="1280" height="820" viewBox="0 0 1280 820">
<defs>
  <marker id="arrow" markerWidth="9" markerHeight="9" refX="8" refY="4.5" orient="auto"><path d="M0 0L9 4.5 0 9Z" fill="#6f7d90"/></marker>
  <style>
    text{font-family:Arial,"Microsoft YaHei",sans-serif;fill:#172033}
    .layer{font-size:20px;font-weight:700}.group{font-size:15px;font-weight:700}.name{font-size:16px;font-weight:700}.sub{font-size:12px;fill:#667085}.card{fill:#fff;stroke:#d5dce7;stroke-width:1.2}.line{stroke:#6f7d90;stroke-width:2.2;fill:none;marker-end:url(#arrow)}
  </style>
</defs>
<rect width="1280" height="820" fill="#fff"/>
<rect x="35" y="25" width="1210" height="120" rx="18" fill="#eef6ff" stroke="#cce2ff"/>
<rect x="35" y="25" width="135" height="120" rx="18" fill="#dceeff"/>
<text x="102" y="92" text-anchor="middle" class="layer">应用层</text>
<g>
  <rect x="220" y="52" width="260" height="66" rx="12" class="card"/>
  <circle cx="255" cy="85" r="14" fill="#e8f2ff" stroke="#2f80ed" stroke-width="2"/>
  <circle cx="249" cy="83" r="2.4" fill="#2f80ed"/><circle cx="255" cy="77" r="2.4" fill="#2f80ed"/><circle cx="261" cy="83" r="2.4" fill="#2f80ed"/>
  <text x="290" y="91" class="name">Agent / Workflow</text>
  <rect x="510" y="52" width="260" height="66" rx="12" class="card"/>
  <rect x="546" y="68" width="25" height="30" rx="4" fill="none" stroke="#2f80ed" stroke-width="2.2"/>
  <path d="M552 76h13M552 84h13M552 92h9" stroke="#2f80ed" stroke-width="2"/>
  <text x="590" y="91" class="name">LLM / Tool / RAG</text>
  <rect x="800" y="52" width="260" height="66" rx="12" class="card"/>
  <path d="M837 68l17 10v20l-17 10-17-10V78zM820 78l17 10 17-10M837 88v20" fill="none" stroke="#2f80ed" stroke-width="2.2"/>
  <text x="880" y="91" class="name">Dify / App Framework</text>
</g>
<path d="M640 145V170" class="line"/>
<rect x="35" y="175" width="1210" height="210" rx="18" fill="#f4f1ff" stroke="#dad2ff"/>
<rect x="35" y="175" width="135" height="210" rx="18" fill="#e8e2ff"/>
<text x="102" y="288" text-anchor="middle" class="layer">采集层</text>
<rect x="205" y="205" width="430" height="145" rx="14" fill="#faf9ff" stroke="#d9d2ff"/>
<text x="225" y="232" class="group">数据捕获模块</text>
<rect x="245" y="250" width="350" height="72" rx="12" class="card"/>
<circle cx="282" cy="274" r="5" fill="#6d5ce8"/><circle cx="269" cy="293" r="5" fill="#6d5ce8"/><circle cx="295" cy="293" r="5" fill="#6d5ce8"/>
<path d="M282 279L271 289M282 279L293 289" stroke="#6d5ce8" stroke-width="2"/>
<text x="320" y="279" class="name">OpenInference Instrumentation</text>
<text x="320" y="299" class="sub">自动捕获 Agent / LLM / Tool / Retriever</text>
<rect x="665" y="205" width="540" height="145" rx="14" fill="#faf9ff" stroke="#d9d2ff"/>
<text x="685" y="232" class="group">标准化与上报模块</text>
<rect x="705" y="250" width="205" height="72" rx="12" class="card"/>
<circle cx="740" cy="286" r="15" fill="#f0ecff" stroke="#6d5ce8" stroke-width="2"/>
<path d="M730 288q10-20 20 0" fill="none" stroke="#6d5ce8" stroke-width="2"/>
<text x="772" y="279" class="name">OpenTelemetry SDK</text>
<text x="772" y="299" class="sub">Trace / Span</text>
<path d="M910 286H960" class="line"/>
<rect x="970" y="250" width="195" height="72" rx="12" class="card"/>
<path d="M1005 300v-28M995 282l10-10 10 10M989 304h32" fill="none" stroke="#6d5ce8" stroke-width="2.4"/>
<text x="1039" y="279" class="name">OTLP Exporter</text>
<text x="1039" y="299" class="sub">HTTP / gRPC</text>
<path d="M635 286H665" class="line"/>
<path d="M640 385V410" class="line"/>
<rect x="35" y="415" width="1210" height="270" rx="18" fill="#ecfaf4" stroke="#c5ecd9"/>
<rect x="35" y="415" width="135" height="270" rx="18" fill="#dcf5e9"/>
<text x="102" y="558" text-anchor="middle" class="layer">平台层</text>
<rect x="205" y="437" width="1000" height="62" rx="14" fill="#f9fffc" stroke="#cdebdc"/>
<text x="225" y="463" class="group">接收模块</text>
<rect x="390" y="446" width="260" height="44" rx="10" class="card"/>
<path d="M420 481v-20M412 469l8-8 8 8M406 483h28" fill="none" stroke="#21a179" stroke-width="2.2"/>
<text x="456" y="476" class="name">OTLP Receiver</text>
<rect x="690" y="446" width="260" height="44" rx="10" class="card"/>
<rect x="720" y="457" width="24" height="18" rx="3" fill="none" stroke="#21a179" stroke-width="2.2"/>
<text x="760" y="476" class="name">API</text>
<rect x="205" y="512" width="1000" height="62" rx="14" fill="#f9fffc" stroke="#cdebdc"/>
<text x="225" y="538" class="group">核心服务</text>
<rect x="390" y="521" width="560" height="44" rx="10" class="card"/>
<ellipse cx="430" cy="535" rx="22" ry="7" fill="#c4efdc" stroke="#21a179" stroke-width="2"/><rect x="408" y="535" width="44" height="15" fill="#d9f7e9" stroke="#21a179" stroke-width="2"/><ellipse cx="430" cy="550" rx="22" ry="7" fill="#d9f7e9" stroke="#21a179" stroke-width="2"/>
<text x="475" y="550" class="name">Phoenix Server</text>
<rect x="205" y="587" width="1000" height="78" rx="14" fill="#f9fffc" stroke="#cdebdc"/>
<text x="225" y="615" class="group">功能模块</text>
<g>
  <rect x="330" y="604" width="145" height="46" rx="10" class="card"/><text x="402" y="633" text-anchor="middle" class="name">Trace</text>
  <rect x="490" y="604" width="155" height="46" rx="10" class="card"/><text x="568" y="633" text-anchor="middle" class="name">Evaluation</text>
  <rect x="660" y="604" width="200" height="46" rx="10" class="card"/><text x="760" y="633" text-anchor="middle" class="name">Dataset / Experiment</text>
  <rect x="875" y="604" width="150" height="46" rx="10" class="card"/><text x="950" y="633" text-anchor="middle" class="name">Prompt</text>
  <rect x="1040" y="604" width="140" height="46" rx="10" class="card"/><text x="1110" y="633" text-anchor="middle" class="name">Web UI</text>
</g>
<path d="M640 685V710" class="line"/>
<rect x="35" y="715" width="1210" height="80" rx="18" fill="#fff6e8" stroke="#f2d9ac"/>
<rect x="35" y="715" width="135" height="80" rx="18" fill="#ffefd3"/>
<text x="102" y="762" text-anchor="middle" class="layer">存储层</text>
<rect x="350" y="730" width="240" height="50" rx="12" class="card"/>
<ellipse cx="390" cy="744" rx="22" ry="7" fill="#fff3e2" stroke="#f59e0b" stroke-width="2"/><rect x="368" y="744" width="44" height="15" fill="#fff8ef" stroke="#f59e0b" stroke-width="2"/><ellipse cx="390" cy="759" rx="22" ry="7" fill="#fff8ef" stroke="#f59e0b" stroke-width="2"/>
<text x="430" y="762" class="name">SQLite</text>
<rect x="650" y="730" width="260" height="50" rx="12" class="card"/>
<ellipse cx="692" cy="744" rx="22" ry="7" fill="#fff3e2" stroke="#f59e0b" stroke-width="2"/><rect x="670" y="744" width="44" height="15" fill="#fff8ef" stroke="#f59e0b" stroke-width="2"/><ellipse cx="692" cy="759" rx="22" ry="7" fill="#fff8ef" stroke="#f59e0b" stroke-width="2"/>
<text x="735" y="762" class="name">PostgreSQL</text>
</svg>