<svg xmlns="http://www.w3.org/2000/svg" width="1280" height="760" viewBox="0 0 1280 760">
  <defs>
    <style>
      text{font-family:Arial,"Microsoft YaHei",sans-serif;fill:#172033}
      .layer{font-size:20px;font-weight:700}
      .group{font-size:16px;font-weight:700}
      .name{font-size:15px;font-weight:700}
      .card{fill:#fff;stroke:#d7dde7;stroke-width:1.2}
      .service{fill:#fbfdfc;stroke:#bfe4d0;stroke-width:1.4}
      .module{fill:#fff;stroke:#cfe8d8;stroke-width:1.2}
      .bgmodule{fill:#fffaf2;stroke:#f0cf8d;stroke-width:1.2}
    </style>
  </defs>
  <rect width="1280" height="760" fill="#fff"/>
  <rect x="35" y="25" width="1210" height="110" rx="18" fill="#f2efff" stroke="#d8d0ff"/>
  <rect x="35" y="25" width="150" height="110" rx="18" fill="#e7e0ff"/>
  <text x="110" y="88" text-anchor="middle" class="layer">展示层</text>
  <rect x="250" y="48" width="420" height="64" rx="12" class="card"/>
  <text x="460" y="86" text-anchor="middle" class="name">Web 界面</text>
  <rect x="700" y="48" width="360" height="64" rx="12" class="card"/>
  <text x="880" y="86" text-anchor="middle" class="name">调试台</text>
  <rect x="35" y="155" width="1210" height="120" rx="18" fill="#eef7ff" stroke="#cfe4f7"/>
  <rect x="35" y="155" width="150" height="120" rx="18" fill="#dceeff"/>
  <text x="110" y="223" text-anchor="middle" class="layer">接口层</text>
  <rect x="235" y="181" width="260" height="66" rx="12" class="card"/>
  <text x="365" y="220" text-anchor="middle" class="name">平台接口</text>
  <rect x="515" y="181" width="260" height="66" rx="12" class="card"/>
  <text x="645" y="220" text-anchor="middle" class="name">查询接口</text>
  <rect x="795" y="181" width="300" height="66" rx="12" class="card"/>
  <text x="945" y="220" text-anchor="middle" class="name">数据接收</text>
  <rect x="35" y="295" width="1210" height="315" rx="18" fill="#ecfaf4" stroke="#c7ead8"/>
  <rect x="35" y="295" width="150" height="315" rx="18" fill="#dcf5e9"/>
  <text x="110" y="463" text-anchor="middle" class="layer">服务层</text>
  <rect x="205" y="318" width="1000" height="265" rx="16" class="service"/>
  <text x="230" y="347" class="group">Phoenix 服务</text>
  <rect x="230" y="365" width="620" height="190" rx="14" class="module"/>
  <text x="250" y="393" class="group">核心服务模块</text>
  <rect x="250" y="410" width="175" height="58" rx="10" class="card"/><text x="337" y="445" text-anchor="middle" class="name">调用链与会话</text>
  <rect x="440" y="410" width="175" height="58" rx="10" class="card"/><text x="527" y="445" text-anchor="middle" class="name">评估</text>
  <rect x="630" y="410" width="195" height="58" rx="10" class="card"/><text x="727" y="445" text-anchor="middle" class="name">数据集与实验</text>
  <rect x="250" y="482" width="270" height="54" rx="10" class="card"/><text x="385" y="515" text-anchor="middle" class="name">提示词与调试</text>
  <rect x="535" y="482" width="290" height="54" rx="10" class="card"/><text x="680" y="515" text-anchor="middle" class="name">数据看板</text>
  <rect x="870" y="365" width="310" height="190" rx="14" class="bgmodule"/>
  <text x="890" y="393" class="group">后台执行模块</text>
  <rect x="890" y="410" width="130" height="54" rx="10" class="card"/><text x="955" y="443" text-anchor="middle" class="name">数据写入</text>
  <rect x="1030" y="410" width="130" height="54" rx="10" class="card"/><text x="1095" y="443" text-anchor="middle" class="name">实验执行</text>
  <rect x="890" y="478" width="130" height="54" rx="10" class="card"/><text x="955" y="511" text-anchor="middle" class="name">成本计算</text>
  <rect x="1030" y="478" width="130" height="54" rx="10" class="card"/><text x="1095" y="511" text-anchor="middle" class="name">数据清理</text>
  <rect x="35" y="630" width="1210" height="100" rx="18" fill="#fff1f3" stroke="#f2cbd2"/>
  <rect x="35" y="630" width="150" height="100" rx="18" fill="#ffe1e6"/>
  <text x="110" y="671" text-anchor="middle" class="layer">存储与</text>
  <text x="110" y="696" text-anchor="middle" class="layer">基础设施层</text>
  <rect x="280" y="650" width="720" height="60" rx="12" class="card"/>
  <text x="330" y="686" class="group">关系型存储</text>
  <rect x="500" y="660" width="190" height="40" rx="10" class="card"/><text x="595" y="686" text-anchor="middle" class="name">SQLite</text>
  <rect x="710" y="660" width="220" height="40" rx="10" class="card"/><text x="820" y="686" text-anchor="middle" class="name">PostgreSQL</text>
</svg>